<svg xmlns="http://www.w3.org/2000/svg" width="480" height="960" viewBox="0 0 480 960" role="img" aria-label="Tambola Mobile Responsive View">
  <defs>
    <linearGradient id="bgGrad" x1="0%" y1="0%" x2="100%" y2="100%">
      <stop offset="0%" style="stop-color:#f9fafb;stop-opacity:1" />
      <stop offset="100%" style="stop-color:#f3f4f6;stop-opacity:1" />
    </linearGradient>
    <linearGradient id="numberGrad" x1="0%" y1="0%" x2="100%" y2="100%">
      <stop offset="0%" style="stop-color:#6366f1;stop-opacity:1" />
      <stop offset="50%" style="stop-color:#8b5cf6;stop-opacity:1" />
      <stop offset="100%" style="stop-color:#ec4899;stop-opacity:1" />
    </linearGradient>
    <linearGradient id="greenBtn" x1="0%" y1="0%" x2="100%" y2="100%">
      <stop offset="0%" style="stop-color:#10b981;stop-opacity:1" />
      <stop offset="100%" style="stop-color:#059669;stop-opacity:1" />
    </linearGradient>
    <filter id="cardShadow">
      <feDropShadow dx="0" dy="4" stdDeviation="10" flood-opacity="0.1"/>
    </filter>
  </defs>
  
  <!-- Phone Background -->
  <rect x="30" y="30" width="420" height="900" rx="40" fill="#000000" stroke="#333" stroke-width="2"/>
  <rect x="45" y="50" width="390" height="860" rx="32" fill="url(#bgGrad)"/>
  
  <!-- Status Bar -->
  <rect x="45" y="50" width="390" height="30" rx="12" fill="#0f172a"/>
  <text x="420" y="70" font-family="'Segoe UI', Arial" font-size="12" text-anchor="end" fill="white">9:41 📶 🔋</text>
  
  <!-- Header -->
  <text x="240" y="120" font-family="'Segoe UI', Arial" font-size="24" font-weight="700" text-anchor="middle" fill="#0f172a">Game On!</text>
  
  <!-- Room Badge -->
  <rect x="90" y="135" width="300" height="40" rx="8" fill="#f0f4ff" stroke="#c7d2fe" stroke-width="1"/>
  <text x="240" y="163" font-family="'Segoe UI', Arial" font-size="14" text-anchor="middle" fill="#4f46e5" font-weight="600">Room: A1B2C3</text>
  
  <!-- Current Number Display -->
  <rect x="80" y="190" width="320" height="100" rx="12" fill="url(#numberGrad)" filter="url(#cardShadow)"/>
  <text x="240" y="215" font-family="'Segoe UI', Arial" font-size="13" text-anchor="middle" fill="#e0e7ff" font-weight="600">Current Number</text>
  <text x="240" y="270" font-family="'Segoe UI', Arial" font-size="64" text-anchor="middle" fill="white" font-weight="800">47</text>
  
  <!-- Ticket -->
  <text x="70" y="320" font-family="'Segoe UI', Arial" font-size="16" font-weight="700" fill="#0f172a">Your Ticket</text>
  
  <rect x="70" y="335" width="340" height="200" rx="10" fill="white" stroke="#cbd5e1" stroke-width="1"/>
  
  <!-- Mini Ticket Grid (3x9 simplified for mobile) -->
  <g font-family="'Segoe UI', Arial" font-size="12" font-weight="700" text-anchor="middle">
    <!-- Row 1 -->
    <rect x="75" y="340" width="35" height="30" rx="4" fill="#d1fae5" stroke="#10b981" stroke-width="1"/>
    <text x="92" y="358" fill="#0f172a">8</text>
    
    <rect x="115" y="340" width="35" height="30" rx="4" fill="#fef3c7" stroke="#f59e0b" stroke-width="1"/>
    <text x="132" y="358" fill="#92400e">12</text>
    
    <rect x="155" y="340" width="35" height="30" rx="4" fill="#d1fae5" stroke="#10b981" stroke-width="1"/>
    <text x="172" y="358" fill="#0f172a">22</text>
    
    <rect x="195" y="340" width="35" height="30" rx="4" fill="#e5e7eb" stroke="#9ca3af" stroke-width="1" opacity="0.5"/>
    <text x="212" y="358" fill="#9ca3af" opacity="0.5">-</text>
    
    <rect x="235" y="340" width="35" height="30" rx="4" fill="#d1fae5" stroke="#10b981" stroke-width="1"/>
    <text x="252" y="358" fill="#0f172a">41</text>
    
    <rect x="275" y="340" width="35" height="30" rx="4" fill="#e5e7eb" stroke="#9ca3af" stroke-width="1" opacity="0.5"/>
    <text x="292" y="358" fill="#9ca3af" opacity="0.5">-</text>
    
    <rect x="315" y="340" width="35" height="30" rx="4" fill="#dbeafe" stroke="#0284c7" stroke-width="1"/>
    <text x="332" y="358" fill="#0f172a">61</text>
    
    <rect x="355" y="340" width="35" height="30" rx="4" fill="#e5e7eb" stroke="#9ca3af" stroke-width="1" opacity="0.5"/>
    <text x="372" y="358" fill="#9ca3af" opacity="0.5">-</text>
    
    <rect x="395" y="340" width="15" height="30" rx="4" fill="#d1fae5" stroke="#10b981" stroke-width="1"/>
    <text x="402" y="358" fill="#0f172a">82</text>
    
    <!-- Row 2 -->
    <rect x="75" y="375" width="35" height="30" rx="4" fill="#e5e7eb" stroke="#9ca3af" stroke-width="1" opacity="0.5"/>
    <text x="92" y="393" fill="#9ca3af" opacity="0.5">-</text>
    
    <rect x="115" y="375" width="35" height="30" rx="4" fill="#d1fae5" stroke="#10b981" stroke-width="1"/>
    <text x="132" y="393" fill="#0f172a">15</text>
    
    <rect x="155" y="375" width="35" height="30" rx="4" fill="#d1fae5" stroke="#10b981" stroke-width="1"/>
    <text x="172" y="393" fill="#0f172a">27</text>
    
    <rect x="195" y="375" width="35" height="30" rx="4" fill="#fef3c7" stroke="#f59e0b" stroke-width="1"/>
    <text x="212" y="393" fill="#92400e">34</text>
    
    <rect x="235" y="375" width="35" height="30" rx="4" fill="#e5e7eb" stroke="#9ca3af" stroke-width="1" opacity="0.5"/>
    <text x="252" y="393" fill="#9ca3af" opacity="0.5">-</text>
    
    <rect x="275" y="375" width="35" height="30" rx="4" fill="#d1fae5" stroke="#10b981" stroke-width="1"/>
    <text x="292" y="393" fill="#0f172a">53</text>
    
    <rect x="315" y="375" width="35" height="30" rx="4" fill="#fef3c7" stroke="#f59e0b" stroke-width="1"/>
    <text x="332" y="393" fill="#92400e">68</text>
    
    <rect x="355" y="375" width="35" height="30" rx="4" fill="#d1fae5" stroke="#10b981" stroke-width="1"/>
    <text x="372" y="393" fill="#0f172a">72</text>
    
    <rect x="395" y="375" width="15" height="30" rx="4" fill="#e5e7eb" stroke="#9ca3af" stroke-width="1" opacity="0.5"/>
    <text x="402" y="393" fill="#9ca3af" opacity="0.5">-</text>
    
    <!-- Row 3 -->
    <rect x="75" y="410" width="35" height="30" rx="4" fill="#dbeafe" stroke="#0284c7" stroke-width="1"/>
    <text x="92" y="428" fill="#0f172a">19</text>
    
    <rect x="115" y="410" width="35" height="30" rx="4" fill="#e5e7eb" stroke="#9ca3af" stroke-width="1" opacity="0.5"/>
    <text x="132" y="428" fill="#9ca3af" opacity="0.5">-</text>
    
    <rect x="155" y="410" width="35" height="30" rx="4" fill="#e5e7eb" stroke="#9ca3af" stroke-width="1" opacity="0.5"/>
    <text x="172" y="428" fill="#9ca3af" opacity="0.5">-</text>
    
    <rect x="195" y="410" width="35" height="30" rx="4" fill="#d1fae5" stroke="#10b981" stroke-width="1"/>
    <text x="212" y="428" fill="#0f172a">36</text>
    
    <rect x="235" y="410" width="35" height="30" rx="4" fill="#fef3c7" stroke="#f59e0b" stroke-width="1"/>
    <text x="252" y="428" fill="#92400e">48</text>
    
    <rect x="275" y="410" width="35" height="30" rx="4" fill="#fef3c7" stroke="#f59e0b" stroke-width="1"/>
    <text x="292" y="428" fill="#92400e">59</text>
    
    <rect x="315" y="410" width="35" height="30" rx="4" fill="#e5e7eb" stroke="#9ca3af" stroke-width="1" opacity="0.5"/>
    <text x="332" y="428" fill="#9ca3af" opacity="0.5">-</text>
    
    <rect x="355" y="410" width="35" height="30" rx="4" fill="#dbeafe" stroke="#0284c7" stroke-width="1"/>
    <text x="372" y="428" fill="#0f172a">78</text>
    
    <rect x="395" y="410" width="15" height="30" rx="4" fill="#dbeafe" stroke="#0284c7" stroke-width="1"/>
    <text x="402" y="428" fill="#0f172a">88</text>
  </g>
  
  <!-- Buttons -->
  <rect x="70" y="560" width="340" height="50" rx="10" fill="url(#greenBtn)" filter="url(#cardShadow)"/>
  <text x="240" y="591" font-family="'Segoe UI', Arial" font-size="16" font-weight="600" text-anchor="middle" fill="white">🌟 Early 5</text>
  
  <rect x="70" y="620" width="340" height="50" rx="10" fill="#0284c7"/>
  <text x="240" y="651" font-family="'Segoe UI', Arial" font-size="16" font-weight="600" text-anchor="middle" fill="white">⬆️ Top Line</text>
  
  <rect x="70" y="680" width="340" height="50" rx="10" fill="#0284c7"/>
  <text x="240" y="711" font-family="'Segoe UI', Arial" font-size="16" font-weight="600" text-anchor="middle" fill="white">↔️ Mid Line</text>
  
  <rect x="70" y="740" width="340" height="50" rx="10" fill="#7c3aed"/>
  <text x="240" y="771" font-family="'Segoe UI', Arial" font-size="16" font-weight="600" text-anchor="middle" fill="white">🎰 Full House</text>
  
  <!-- Footer -->
  <text x="240" y="840" font-family="'Segoe UI', Arial" font-size="12" text-anchor="middle" fill="#64748b">Fully responsive design</text>
  <text x="240" y="860" font-family="'Segoe UI', Arial" font-size="12" text-anchor="middle" fill="#64748b">optimized for all devices</text>
</svg>